# xmcd
#
# Track frame offsets:
#	150
#	9905
#	27192
#	38435
#	50302
#	63662
#	77027
#	87727
#	98602
#	107157
#	119030
#
# Disc length: 1693 seconds
#
# Revision: 1
# Processed by: cddbd v1.5.2PL0 Copyright (c) Steve Scherf et al.
# Submitted via: audiograbber 1.83.01
#
DISCID=84069b0b
DTITLE=Barry Goldberg Blues Band - Blowing My Mind
DYEAR=1966
DGENRE=Oldies
TTITLE0=Gettin' It Down
TTITLE1=Mean Old World
TTITLE2=Twice A Man
TTITLE3=Whole Lotta Shakin' Goin' On
TTITLE4=Big Boss Man
TTITLE5=Blowing My Mind
TTITLE6=That'll Be The Day
TTITLE7=Can't Stand To See You Go
TTITLE8=Put Me Down
TTITLE9=Think
TTITLE10=Ginger Man
EXTD=
EXTT0=
EXTT1=
EXTT2=
EXTT3=
EXTT4=
EXTT5=
EXTT6=
EXTT7=
EXTT8=
EXTT9=
EXTT10=
PLAYORDER=
